<svg version="1.1" fill="none" stroke="#101010" stroke-width="11" stroke-miterlimit="10" xmlns="http://www.w3.org/2000/svg" xmlns:xlink="http://www.w3.org/1999/xlink" x="0px" y="0px"
	 viewBox="0 0 100 100" style="enable-background:new 0 0 100 100;" xml:space="preserve">
<path d="M96,96l-8.8-8.8c0,0-8.8-8.8-8.8-8.8c-3.6,3.6-7.9,6.5-12.7,8.6c-4.8,2-10,3.1-15.6,3.1s-10.8-1.1-15.6-3.1
	c-4.8-2-9.1-5-12.7-8.6s-6.5-7.9-8.6-12.7c-2-4.8-3.1-10-3.1-15.6s1.1-10.8,3.1-15.6s5-9.1,8.6-12.7s7.9-6.5,12.7-8.6S44.5,10,50,10
	s10.8,1.1,15.6,3.1c4.8,2,9.1,5,12.7,8.6s6.5,7.9,8.6,12.7c2,4.8,3.1,10,3.1,15.6"/>
</svg>
